<svg class="icon" viewBox="0 0 1024 1024" xmlns="http://www.w3.org/2000/svg" width="200" height="200"><defs><style/></defs><path d="M925.598 836.904c.367-2.784.847-5.53.847-8.41V180.092c19.035-11.08 31.976-31.471 31.976-55.083 0-35.321-28.633-63.957-63.953-63.957-23.612 0-44.007 12.942-55.083 31.98H182.11c-11.077-19.038-31.471-31.98-55.083-31.98-35.318 0-63.953 28.636-63.953 63.957 0 23.612 12.943 44.003 31.976 55.083v648.402c0 2.88.48 5.627.851 8.41-19.499 10.954-32.827 31.586-32.827 55.543 0 35.317 28.635 63.953 63.953 63.953 35.322 0 63.954-28.635 63.954-63.953h639.536c0 35.317 28.631 63.953 63.954 63.953 35.32 0 63.953-28.635 63.953-63.953-.002-23.957-13.33-44.588-32.825-55.543zm-63.106-8.41h-703.49V180.092a63.844 63.844 0 0 0 23.11-23.11h657.274a63.801 63.801 0 0 0 23.107 23.11v648.402z"/><path d="M670.628 252.915h-383.72v127.903h63.954v-63.953h127.906V668.61h-63.952v63.953h191.86v-63.953h-63.954V316.865h127.906v63.953h63.957V252.915H702.61z"/></svg>