<?xml version="1.0" standalone="no"?><!DOCTYPE svg PUBLIC "-//W3C//DTD SVG 1.1//EN" "http://www.w3.org/Graphics/SVG/1.1/DTD/svg11.dtd"><svg t="1587116936951" class="icon" viewBox="0 0 1024 1024" version="1.1" xmlns="http://www.w3.org/2000/svg" p-id="2101" xmlns:xlink="http://www.w3.org/1999/xlink" width="200" height="200"><defs><style type="text/css"></style></defs><path d="M939.85 518.7c-19.57 0-35.449 15.88-35.449 35.45v280.686c0 26.056-21.247 47.303-47.303 47.303h-689.86c-26.057 0-47.304-21.247-47.304-47.303v-650.05c0-26.056 21.247-47.304 47.303-47.304h302.716c19.57 0 35.45-15.88 35.45-35.449s-15.768-35.449-35.45-35.449H167.237c-65.195 0-118.201 53.006-118.201 118.201v650.051c0 65.195 53.006 118.201 118.201 118.201h689.861c65.196 0 118.202-53.006 118.202-118.2V554.15c0-19.57-15.88-35.45-35.45-35.45z" p-id="2102"></path><path d="M222.48 693.822C332.63 589.6 443.785 428.456 640.377 438.856c13.867 0.783 24.714 11.63 24.714 25.609v68.214c-0.112 21.471 24.826 33.437 41.488 19.906l254.854-206.098c12.637-10.176 12.637-29.522-0.112-39.698L707.697 78.66c-16.662-13.419-42.606-1.565-42.718 19.794v69.109c0 12.972-8.834 22.365-21.582 25.273-338.277 77.16-423.825 473.7-420.917 500.985z" p-id="2103"></path></svg>