<svg width="48" height="48" xmlns="http://www.w3.org/2000/svg"><g><path d="M41.596 7.319a1.767 1.767 0 0 0-2.404.02 1.806 1.806 0 0 0-.187 2.42c6.656 7.262 7.26 18.271 1.44 26.231-5.821 7.96-16.427 10.628-25.27 6.355C6.33 38.073 1.742 28.066 4.24 18.501a1.795 1.795 0 0 0-1.29-2.106 1.777 1.777 0 0 0-2.148 1.198C-2.147 28.83 3.238 40.596 13.63 45.62c10.391 5.024 22.856 1.888 29.691-7.47 6.836-9.359 6.113-22.298-1.722-30.822l-.003-.01z"/><circle cx="5.388" cy="9.306" r="2.449"/><path d="M20.789 37.224h7.414c5.516-.01 9.986-4.315 10.001-9.63V17.65c-.009-3.811-2.343-7.261-5.958-8.806V4.347C32.242 1.952 30.232.01 27.746 0h-6.5c-2.49.003-4.509 1.948-4.512 4.347v4.486c-3.615 1.545-5.95 4.995-5.958 8.806v9.954c.015 5.32 4.492 9.627 10.013 9.631zm-.445-32.877c0-.486.409-.88.914-.88h6.5c.505 0 .914.394.914.88v1.926h-2.708V8.46h-2.888V6.27h-2.708l-.024-1.923zm-5.959 13.304c0-3.405 2.864-6.165 6.397-6.165h7.415c1.697 0 3.324.65 4.524 1.806a6.053 6.053 0 0 1 1.873 4.359v9.942c0 3.405-2.864 6.165-6.397 6.165H20.79c-3.533 0-6.398-2.76-6.398-6.165l-.006-9.942z"/></g></svg>