<?xml version="1.0" encoding="UTF-8"?>
<svg width="48px" height="48px" viewBox="0 0 48 48" version="1.1" xmlns="http://www.w3.org/2000/svg" xmlns:xlink="http://www.w3.org/1999/xlink">
    <!-- Generator: Sketch 51.3 (57544) - http://www.bohemiancoding.com/sketch -->
    <title>Group 4</title>
    <desc>Created with Sketch.</desc>
    <defs></defs>
    <g id="Page-1" stroke="none" stroke-width="1" >
        <g id="账户密码登录-copy-3" transform="translate(-48.000000, -31.000000)" >
            <g id="Group-5" transform="translate(48.000000, 29.000000)">
                <g id="Group-4" transform="translate(0.000000, 2.000000)">
                    <path d="M41.5964379,7.31894277 C40.9109731,6.69541622 39.8666439,6.70433192 39.191738,7.33947228 C38.5168321,7.97461264 38.4355626,9.02497513 39.0046048,9.75806467 C45.6612182,17.0211642 46.2655264,28.0302653 40.4445416,35.9903893 C34.6235568,43.9505133 24.0183364,46.6175345 15.1745782,42.3453282 C6.33081992,38.0731219 1.74176446,28.0661126 4.23984416,18.5007733 C4.43557371,17.5639464 3.86781673,16.6370942 2.94969723,16.3946337 C2.03157772,16.1521732 1.08646612,16.6795012 0.802065605,17.5929116 C-2.14682899,28.8305483 3.23814331,40.596266 13.6297137,45.6202584 C24.0212841,50.6442509 36.4856708,47.5081283 43.3213737,38.1496393 C50.1570765,28.7911503 49.4342178,15.8524138 41.5994377,7.32802139 L41.5964379,7.31894277 Z" id="Shape"></path>
                    <circle id="Oval" cx="5.3877551" cy="9.30612245" r="2.44897959"></circle>
                    <path d="M20.7885838,37.2244898 L28.2031931,37.2244898 C33.7192945,37.2132002 38.1890044,32.9087049 38.2040816,27.5932658 L38.2040816,17.6508838 C38.1951633,13.8396311 35.8610113,10.3898695 32.245587,8.84452234 L32.245587,4.3474071 C32.2422553,1.95231061 30.231745,0.00968806529 27.7462534,0 L21.2455235,0 C18.755272,0.00323405531 16.737361,1.94774132 16.7340048,4.3474071 L16.7340048,8.83278052 C13.1185806,10.3781277 10.7844285,13.8278893 10.7755102,17.639142 L10.7755102,27.5932658 C10.7906106,32.9132793 15.2677251,37.2196586 20.7885838,37.2244898 Z M20.343829,4.3474071 C20.343829,3.86104518 20.7529869,3.46677095 21.2577086,3.46677095 L27.7584384,3.46677095 C28.2631602,3.46677095 28.672318,3.86104518 28.672318,4.3474071 L28.672318,6.2730648 L25.9641883,6.2730648 L25.9641883,8.45997789 L23.0763289,8.45997789 L23.0763289,6.27012934 L20.3681992,6.27012934 L20.343829,4.3474071 Z M14.3853344,17.6508838 C14.3853344,14.2463504 17.2494391,11.4864308 20.7824912,11.4864308 L28.1971006,11.4864308 C29.8937321,11.4864308 31.520874,12.1358981 32.7205736,13.2919573 C33.9202732,14.4480164 34.5942574,16.0159692 34.5942574,17.6508838 L34.5942574,27.5932658 C34.5942574,30.9977992 31.7301528,33.7577188 28.1971006,33.7577188 L20.7885838,33.7577188 C17.2555316,33.7577188 14.3914269,30.9977992 14.3914269,27.5932658 L14.3853344,17.6508838 Z" id="Shape"></path>
                </g>
            </g>
        </g>
    </g>
</svg>
