<svg class="icon" viewBox="0 0 1024 1024" xmlns="http://www.w3.org/2000/svg" width="200" height="200"><defs><style/></defs><path d="M1023.898 136.5V0h-137.83v36.25H137.932V0H.103v136.5h36.863v751H.102V1024h137.83v-36.25h748.135V1024h137.83V887.5h-36.863v-751h36.864zm-100.926 751h-36.905v36.25H137.933V887.5h-36.905v-751h36.905v-36.25h748.134v36.25h36.905v751z"/><path d="M357.765 318.403a3045.13 3045.13 0 0 0 60.15 123.842c22.405 42.885 39.854 78.5 52.326 106.865a752.312 752.312 0 0 0 43.684 84.173c44.155-73.175 95.355-178.135 153.6-314.88l127.345.307c4.505.655 6.738 2.56 6.738 5.775 0 3.195-2.56 5.018-7.68 5.427-22.63 1.925-37.724 6.452-45.282 13.599-7.577 7.168-12.288 19.149-14.09 36.004-1.802 16.855-3.563 48.21-5.284 94.085-1.7 45.875-2.56 84.05-2.56 114.565 0 58.655.43 92.856 1.29 102.564.86 9.707 4.486 17.428 10.875 23.183 6.41 5.776 18.883 9.933 37.438 12.493 5.325.84 7.987 2.867 7.987 6.083 0 3.195-3.277 4.792-9.892 4.792l-124.498-.328h-32.624c-7.27 0-10.896-1.7-10.896-5.12 0-2.97 2.458-4.792 7.373-5.427 17.92-2.355 29.799-5.652 35.676-9.933 5.858-4.26 10.24-11.878 13.107-22.876 2.888-10.977 4.342-38.338 4.342-82.084l6.062-153.6 3.216-75.837c0-5.755-.86-8.643-2.56-8.643-2.56 0-4.71 1.72-6.41 5.12l-63.366 125.133c-40.53 79.995-65.372 131.195-74.547 153.6l-19.845 48.333c-6.185 14.705-9.912 22.753-11.203 24.146a5.94 5.94 0 0 1-4.485 2.068c-2.56 0-4.69-2.764-6.39-8.315-3.85-13.23-23.572-55.255-59.187-126.074A4643.779 4643.779 0 0 0 361.431 460.8c-25.907-51.2-39.936-77.926-42.066-80.159-2.13-2.253-3.748-3.358-4.813-3.358-2.13 0-3.195 2.662-3.195 7.987l-3.522 193.945-.963 63.98c0 33.935 4.65 56.115 13.927 66.56s22.569 15.688 39.833 15.688c11.1 0 16.65 2.334 16.65 7.045 0 3.4-2.662 5.12-7.987 5.12l-6.758-.328-20.787.328-45.138-.328c-19.62 0-44.892 1.065-75.838 3.195-2.56-1.7-3.83-3.4-3.83-5.12 0-4.26 3.728-6.492 11.203-6.718 21.32-.634 37.008-7.68 47.022-21.114 10.035-13.435 15.053-43.52 15.053-90.235l-.635-56.32 4.465-142.746c0-33.26-4.915-56.033-14.705-68.3-9.83-12.268-24.228-19.58-43.213-21.914-8.11-1.065-12.165-3.318-12.165-6.718 0-3.85 2.99-5.775 8.97-5.775 3.195 0 7.046.102 11.53.328l113.255 2.56z"/></svg>