<?xml version="1.0" standalone="no"?><!DOCTYPE svg PUBLIC "-//W3C//DTD SVG 1.1//EN" "http://www.w3.org/Graphics/SVG/1.1/DTD/svg11.dtd"><svg t="1586959454589" class="icon" viewBox="0 0 1024 1024" version="1.1" xmlns="http://www.w3.org/2000/svg" p-id="3481" xmlns:xlink="http://www.w3.org/1999/xlink" width="200" height="200"><defs><style type="text/css"></style></defs><path d="M1023.8976 136.4992V0h-137.8304v36.2496H137.9328V0H0.1024v136.4992h36.864v751.0016h-36.864V1024h137.8304v-36.2496h748.1344V1024h137.8304v-136.4992h-36.864V136.4992h36.864z m-100.92544 751.0016h-36.90496v36.2496H137.9328v-36.2496H101.02784V136.4992h36.90496v-36.2496h748.1344v36.2496h36.90496v751.0016z" p-id="3482"></path><path d="M357.76512 318.40256a3045.13024 3045.13024 0 0 0 60.14976 123.84256c22.40512 42.88512 39.85408 78.49984 52.3264 106.86464a752.31232 752.31232 0 0 0 43.68384 84.1728c44.15488-73.17504 95.35488-178.13504 153.6-314.88l127.34464 0.3072c4.5056 0.65536 6.73792 2.56 6.73792 5.77536 0 3.19488-2.56 5.0176-7.68 5.4272-22.6304 1.92512-37.72416 6.4512-45.28128 13.59872-7.5776 7.168-12.288 19.1488-14.09024 36.00384-1.80224 16.85504-3.56352 48.20992-5.28384 94.08512-1.69984 45.8752-2.56 84.04992-2.56 114.56512 0 58.65472 0.43008 92.85632 1.29024 102.56384 0.86016 9.70752 4.48512 17.42848 10.87488 23.18336 6.41024 5.77536 18.88256 9.9328 37.43744 12.4928 5.3248 0.83968 7.9872 2.8672 7.9872 6.08256 0 3.19488-3.2768 4.79232-9.89184 4.79232l-124.49792-0.32768h-32.62464c-7.2704 0-10.89536-1.69984-10.89536-5.12 0-2.9696 2.4576-4.79232 7.3728-5.4272 17.92-2.3552 29.7984-5.65248 35.67616-9.9328 5.85728-4.25984 10.24-11.8784 13.1072-22.87616 2.88768-10.97728 4.34176-38.33856 4.34176-82.08384l6.06208-153.6 3.21536-75.83744c0-5.75488-0.86016-8.64256-2.56-8.64256-2.56 0-4.7104 1.72032-6.41024 5.12l-63.36512 125.1328c-40.52992 79.99488-65.37216 131.19488-74.5472 153.6l-19.84512 48.3328c-6.18496 14.70464-9.91232 22.75328-11.20256 24.14592a5.9392 5.9392 0 0 1-4.48512 2.06848c-2.56 0-4.68992-2.7648-6.38976-8.31488-3.85024-13.23008-23.57248-55.25504-59.1872-126.07488a4643.77856 4643.77856 0 0 0-66.74432-136.64256c-25.9072-51.2-39.936-77.9264-42.06592-80.15872-2.12992-2.2528-3.74784-3.35872-4.8128-3.35872-2.12992 0-3.19488 2.6624-3.19488 7.9872l-3.52256 193.9456-0.96256 63.97952c0 33.93536 4.64896 56.1152 13.9264 66.56 9.27744 10.4448 22.56896 15.68768 39.8336 15.68768 11.10016 0 16.65024 2.33472 16.65024 7.04512 0 3.39968-2.6624 5.12-7.9872 5.12L362.53696 737.28l-20.7872 0.32768L296.61184 737.28c-19.61984 0-44.89216 1.06496-75.83744 3.19488-2.56-1.69984-3.82976-3.39968-3.82976-5.12 0-4.25984 3.72736-6.49216 11.20256-6.71744 21.31968-0.63488 37.00736-7.68 47.02208-21.11488 10.0352-13.43488 15.0528-43.52 15.0528-90.23488l-0.63488-56.32 4.46464-142.7456c0-33.25952-4.9152-56.03328-14.70464-68.3008-9.8304-12.26752-24.22784-19.57888-43.2128-21.9136-8.11008-1.06496-12.16512-3.31776-12.16512-6.71744 0-3.85024 2.99008-5.77536 8.97024-5.77536 3.19488 0 7.04512 0.1024 11.53024 0.32768l113.2544 2.56z" p-id="3483"></path></svg>