<svg class="icon" viewBox="0 0 1024 1024" xmlns="http://www.w3.org/2000/svg" width="200" height="200"><defs><style/></defs><path d="M717.723 66.79H310.008c-48.507 0-87.972 39.535-87.972 88.13v711.303c0 48.525 39.464 87.986 87.972 87.986h407.715c48.595 0 88.13-39.461 88.13-87.986V154.92c0-48.594-39.535-88.13-88.13-88.13M276.402 257.773h475.086v475.265H276.402V257.773zm475.086 608.45c0 18.545-15.148 33.622-33.765 33.622H310.008c-18.528 0-33.606-15.077-33.606-33.622V787.4h475.086v78.822zM276.402 203.41v-48.49c0-18.617 15.078-33.766 33.606-33.766h407.715c18.617 0 33.765 15.15 33.765 33.766v48.49H276.402zm237.561 689.675c27.324 0 49.481-22.155 49.481-49.514 0-27.325-22.156-49.48-49.48-49.48-27.36 0-49.5 22.154-49.5 49.48 0 27.359 22.14 49.514 49.5 49.514m32.703-739.333h-65.426c-6.813 0-12.334 5.522-12.334 12.317 0 6.83 5.52 12.353 12.334 12.353h65.426c6.796 0 12.351-5.522 12.351-12.353 0-6.795-5.556-12.317-12.35-12.317"/></svg>