<svg class="icon" viewBox="0 0 1024 1024" xmlns="http://www.w3.org/2000/svg" width="200" height="200"><defs><style/></defs><path d="M41.91 682.266h.14a41.91 41.91 0 0 1 41.91 41.91v250.929a41.91 41.91 0 0 1-41.91 41.91h-.14A41.91 41.91 0 0 1 0 975.105V724.176a41.91 41.91 0 0 1 41.91-41.91z"/><path d="M43.307 933.32h252.088a41.91 41.91 0 0 1 41.91 41.91 41.91 41.91 0 0 1-41.91 41.91H43.307a41.91 41.91 0 0 1-41.91-41.91 41.91 41.91 0 0 1 41.91-41.91z"/><path d="M13.495 1002.905a41.742 41.742 0 0 1 .964-59.163l341.846-329.817a41.91 41.91 0 1 1 58.394 60.071L72.853 1003.869a42.078 42.078 0 0 1-59.358-.964zM981.965 5.588h.125a41.91 41.91 0 0 1 41.91 41.91v250.943a41.91 41.91 0 0 1-41.91 41.91h-.126a41.91 41.91 0 0 1-41.91-41.91V47.498a41.91 41.91 0 0 1 41.91-41.91z"/><path d="M728.605 5.588h252.088a41.91 41.91 0 0 1 41.91 41.91 41.91 41.91 0 0 1-41.91 41.91H728.605a41.91 41.91 0 0 1-41.91-41.91 41.91 41.91 0 0 1 41.91-41.91z"/><path d="M1010.505 19.698a41.742 41.742 0 0 1-.964 59.163L667.695 408.692a41.91 41.91 0 1 1-58.394-60.071L951.147 18.804a42.078 42.078 0 0 1 59.358.894zM48.895 0h250.929a41.91 41.91 0 0 1 41.91 41.91v.126a41.91 41.91 0 0 1-41.91 41.91H48.895a41.91 41.91 0 0 1-41.91-41.91v-.126A41.91 41.91 0 0 1 48.895 0z"/><path d="M48.895 1.397a41.91 41.91 0 0 1 41.91 41.91v252.158a41.91 41.91 0 0 1-41.91 41.91 41.91 41.91 0 0 1-41.91-41.91V43.307a41.91 41.91 0 0 1 41.91-41.91z"/><path d="M21.095 13.495a41.742 41.742 0 0 1 59.163.964l329.817 341.846a41.91 41.91 0 1 1-60.071 58.394L20.131 72.853a42.078 42.078 0 0 1 .964-59.358zm704.464 926.56h250.943a41.91 41.91 0 0 1 41.91 41.91v.125a41.91 41.91 0 0 1-41.91 41.91H725.559a41.91 41.91 0 0 1-41.91-41.91v-.126a41.91 41.91 0 0 1 41.91-41.91z"/><path d="M976.502 686.75a41.91 41.91 0 0 1 41.91 41.91v252.033a41.91 41.91 0 0 1-41.91 41.91 41.91 41.91 0 0 1-41.91-41.91V728.605a41.91 41.91 0 0 1 41.91-41.854z"/><path d="M1004.302 1010.505a41.742 41.742 0 0 1-59.163-.964L615.308 667.695a41.91 41.91 0 1 1 60.071-58.394l329.817 341.846a42.078 42.078 0 0 1-.894 59.358z"/></svg>