<svg class="icon" viewBox="0 0 1024 1024" xmlns="http://www.w3.org/2000/svg" width="200" height="200"><defs><style/></defs><path d="M332.82 413.878c-12.798 4.266-29.863-4.266-34.129-21.33-4.266-17.066 4.266-34.13 21.331-34.13h12.799c17.064 0 29.863 12.798 29.863 29.863 0 12.798-12.799 25.597-29.863 25.597zm174.914 0c-17.065 4.266-34.13-4.266-38.396-21.33-4.266-17.066 4.267-34.13 21.331-38.396h12.799c17.065 0 29.863 12.798 29.863 29.863 4.266 17.064-8.532 29.863-25.597 29.863zm81.057 162.115c-12.798 0-25.597-8.532-25.597-21.331s8.533-25.597 21.331-25.597c12.799-4.266 25.597 4.266 29.864 17.065 4.266 12.798-4.267 25.597-17.065 29.863h-8.533zm136.518 0c-12.798 0-25.597-8.532-25.597-21.331s8.533-25.597 21.331-25.597c12.799-4.266 25.597 4.266 29.863 17.065 4.267 12.798-4.266 25.597-17.064 29.863h-8.533zM657.05 435.209c-119.453 0-209.043 76.791-209.043 170.647s93.856 170.647 209.043 170.647c25.597 0 51.195-4.266 72.525-12.798l68.26 34.13-17.065-59.727c46.928-29.863 81.057-81.058 85.323-136.518 0-89.59-98.122-166.381-209.043-166.381zm-243.172-179.18c-136.518 0-247.438 89.59-247.438 200.51 4.266 68.26 38.395 127.986 98.122 157.85l-25.597 72.525 85.323-42.662c29.864 8.532 55.46 12.798 85.324 12.798h21.33c-4.265-17.064-8.532-34.13-8.532-51.194 4.267-110.92 98.123-191.978 209.043-187.712h25.597c-12.798-89.59-119.453-162.115-243.172-162.115zm102.388 767.913C234.698 1028.208 4.325 797.834.058 516.266-4.208 234.698 226.166 4.325 507.734.058s511.942 226.108 516.208 507.676V512c0 281.568-226.108 511.942-507.676 511.942z"/></svg>