<?xml version="1.0" standalone="no"?><!DOCTYPE svg PUBLIC "-//W3C//DTD SVG 1.1//EN" "http://www.w3.org/Graphics/SVG/1.1/DTD/svg11.dtd"><svg t="1587118928097" class="icon" viewBox="0 0 1024 1024" version="1.1" xmlns="http://www.w3.org/2000/svg" p-id="7355" xmlns:xlink="http://www.w3.org/1999/xlink" width="200" height="200"><defs><style type="text/css"></style></defs><path d="M5.454134 344.6304a39.960792 39.960792 0 0 0 39.960792 39.960792h301.693143a39.960792 39.960792 0 0 0 39.960792-39.960792V42.937257a39.960792 39.960792 0 1 0-79.993847 0v205.079075l-224.011674-224.011674a40.033054 40.033054 0 1 0-56.581014 56.581013l224.011675 224.011675H45.414926A39.960792 39.960792 0 0 0 5.454134 344.6304z" p-id="7356"></path><path d="M673.876067 384.591192h301.62088a39.960792 39.960792 0 1 0 0-79.993846h-205.006813l224.011675-224.011675a40.033054 40.033054 0 1 0-56.581014-56.581013l-224.011674 224.011674V42.937257a39.960792 39.960792 0 1 0-79.993847 0v301.693143a39.960792 39.960792 0 0 0 39.960793 39.960792z" p-id="7357"></path><path d="M347.108069 642.204618H45.414926a39.960792 39.960792 0 1 0 0 79.993847h205.079075l-224.011675 224.011674a40.033054 40.033054 0 1 0 56.581014 56.581014l224.011674-224.011675v205.151337a39.960792 39.960792 0 1 0 79.993847 0V681.948625a39.960792 39.960792 0 0 0-39.960792-39.744007z" p-id="7358"></path><path d="M1015.530002 681.948625a39.960792 39.960792 0 0 0-40.033055-39.960792H673.876067a39.960792 39.960792 0 0 0-39.960793 39.960792v301.620881a39.960792 39.960792 0 1 0 79.993847 0v-205.151337l224.011674 224.011675a40.033054 40.033054 0 1 0 56.581014-56.581014l-224.011675-224.011675h205.079075a39.960792 39.960792 0 0 0 39.960793-39.88853z" p-id="7359"></path></svg>