<svg class="icon" viewBox="0 0 1024 1024" xmlns="http://www.w3.org/2000/svg" width="200" height="200"><defs><style/></defs><path d="M5.454 344.63a39.96 39.96 0 0 0 39.96 39.961h301.694a39.96 39.96 0 0 0 39.96-39.96V42.936a39.96 39.96 0 1 0-79.993 0v205.08L83.063 24.004a40.033 40.033 0 1 0-56.58 56.58l224.011 224.012H45.414a39.96 39.96 0 0 0-39.96 40.033zM673.876 384.591h301.62a39.96 39.96 0 1 0 0-79.994H770.49L994.502 80.586a40.033 40.033 0 1 0-56.581-56.581L713.909 248.016V42.937a39.96 39.96 0 1 0-79.994 0V344.63a39.96 39.96 0 0 0 39.961 39.961zM347.108 642.205H45.415a39.96 39.96 0 1 0 0 79.993h205.079L26.482 946.21a40.033 40.033 0 1 0 56.581 56.581L307.075 778.78v205.152a39.96 39.96 0 1 0 79.994 0V681.949a39.96 39.96 0 0 0-39.96-39.744zM1015.53 681.949a39.96 39.96 0 0 0-40.033-39.961h-301.62a39.96 39.96 0 0 0-39.962 39.96V983.57a39.96 39.96 0 1 0 79.994 0V778.418l224.012 224.012a40.033 40.033 0 1 0 56.58-56.581l-224.01-224.012h205.078a39.96 39.96 0 0 0 39.961-39.888z"/></svg>