<?xml version="1.0" standalone="no"?><!DOCTYPE svg PUBLIC "-//W3C//DTD SVG 1.1//EN" "http://www.w3.org/Graphics/SVG/1.1/DTD/svg11.dtd"><svg t="1589281184807" class="icon" viewBox="0 0 1024 1024" version="1.1" xmlns="http://www.w3.org/2000/svg" p-id="3563" xmlns:xlink="http://www.w3.org/1999/xlink" width="200" height="200"><defs><style type="text/css"></style></defs><path d="M959.608 286.565c0-64.381-52.191-116.571-116.571-116.571H181.835c-64.381 0-116.571 52.191-116.571 116.571v449.141c0 64.381 52.191 116.571 116.571 116.571h661.202c64.381 0 116.571-52.191 116.571-116.571V286.565z m-114.673-74.569c12.073 0 23.471 3.469 33.557 8.608l-346.971 328.66c-1.229 1.163-1.157 0.919-1.754 1.871-1.428 1.069-6.063 3.927-15.467 3.927-9.408 0-14.041-2.758-15.469-3.823-0.677-1.079-0.662-0.717-1.997-1.943L143.316 224.52c11.622-7.565 25.473-12.524 40.346-12.524h661.273z m72.671 524.615c0 40.903-31.767 73.665-72.671 73.665H183.661c-40.904 0-75.37-32.762-75.37-73.665V287.282c0-10.642 2.863-20.758 6.917-29.916l351.879 322.456c4.917 5.31 19.501 17.697 47.061 17.697 27.831 0 42.351-12.633 47.129-17.85l347.189-329.268c6.258 10.872 9.14 23.46 9.14 36.879v449.331z" fill="" p-id="3564"></path></svg>